<?xml version="1.0" standalone="no"?>
<!DOCTYPE svg PUBLIC "-//W3C//DTD SVG 20010904//EN"
 "http://www.w3.org/TR/2001/REC-SVG-20010904/DTD/svg10.dtd">
<svg version="1.0" xmlns="http://www.w3.org/2000/svg"
 width="700.000000pt" height="700.000000pt" viewBox="0 0 700.000000 700.000000"
 preserveAspectRatio="xMidYMid meet">
<metadata>
Created by potrace 1.14, written by Peter Selinger 2001-2017
</metadata>
<g transform="translate(0.000000,700.000000) scale(0.100000,-0.100000)"
fill="#000000" stroke="none">
<path d="M3278 6996 c-1 -2 -42 -6 -89 -10 -47 -4 -95 -8 -105 -10 -10 -2 -48
-7 -84 -12 -36 -4 -67 -8 -70 -9 -3 -1 -25 -5 -50 -9 -25 -4 -101 -21 -170
-38 -69 -16 -134 -31 -146 -34 -95 -19 -416 -141 -579 -220 -180 -87 -448
-247 -555 -331 -8 -6 -51 -40 -95 -74 -353 -275 -673 -651 -897 -1054 -49 -87
-148 -289 -148 -301 0 -2 -9 -23 -20 -47 -57 -123 -157 -435 -186 -582 -2 -11
-10 -54 -19 -95 -29 -147 -36 -199 -52 -370 -15 -162 -8 -590 12 -711 2 -13 6
-46 10 -74 9 -76 16 -116 25 -160 5 -22 11 -53 14 -70 9 -49 13 -66 36 -155
21 -85 73 -257 89 -295 5 -11 26 -65 46 -120 51 -134 170 -377 245 -500 34
-55 66 -109 73 -120 53 -86 250 -344 322 -421 163 -175 289 -294 458 -430 91
-74 328 -234 345 -234 5 0 19 21 30 48 11 26 45 99 75 162 30 63 66 140 80
170 14 30 51 109 82 175 55 115 95 201 155 330 46 99 95 203 154 328 31 65 56
122 56 127 0 5 -17 21 -37 37 -182 133 -375 346 -502 550 -155 250 -242 503
-290 837 -19 134 -6 476 23 596 3 14 8 37 11 53 12 63 17 85 37 152 64 216
210 503 333 654 186 227 376 395 590 519 119 69 364 173 464 198 248 60 324
69 561 69 195 -1 276 -8 420 -40 14 -3 39 -7 55 -11 l30 -5 97 208 c131 280
276 588 327 697 23 49 56 117 72 152 16 35 43 94 59 130 17 36 42 88 55 114
l24 47 -97 31 c-152 49 -373 101 -492 117 -19 3 -46 7 -60 10 -13 2 -52 7 -86
11 -33 3 -74 8 -90 10 -32 5 -540 14 -546 10z"/>
<path d="M5160 6376 c-41 -88 -100 -216 -132 -284 -32 -67 -58 -124 -58 -127
-1 -2 -22 -49 -49 -102 -26 -54 -56 -116 -66 -138 -10 -22 -44 -94 -75 -160
-141 -300 -175 -378 -162 -383 21 -7 132 -92 207 -158 253 -223 433 -477 554
-782 42 -105 104 -327 116 -415 4 -27 9 -59 12 -70 9 -38 12 -399 3 -462 -4
-33 -11 -84 -15 -113 -3 -30 -20 -106 -36 -170 -32 -126 -32 -127 -44 -157 -4
-11 -23 -60 -42 -110 -176 -456 -552 -855 -1010 -1071 -195 -92 -391 -149
-618 -180 -95 -12 -445 -13 -505 0 -14 2 -41 7 -60 10 -57 9 -80 14 -179 39
l-94 24 -59 -125 c-32 -68 -67 -143 -77 -165 -11 -23 -43 -91 -71 -152 -29
-60 -84 -177 -122 -260 -39 -82 -97 -206 -129 -274 -32 -68 -59 -125 -59 -127
0 -1 -25 -55 -55 -118 -30 -63 -55 -117 -55 -120 0 -31 485 -158 729 -192 25
-3 57 -7 70 -10 197 -30 696 -25 908 10 21 4 54 9 73 11 19 3 46 7 60 10 14 3
41 8 60 11 97 17 289 68 430 114 178 57 568 235 660 300 15 11 33 20 39 20 6
0 11 5 11 10 0 6 5 10 10 10 15 0 220 141 330 227 152 118 324 280 450 422 36
41 70 79 76 85 6 6 48 61 94 121 150 197 277 405 383 628 26 53 47 99 47 102
0 2 11 28 24 57 57 127 151 421 182 573 14 67 54 298 59 340 30 259 28 654 -6
890 -124 880 -536 1629 -1219 2216 -120 103 -390 293 -485 341 l-30 15 -75
-161z"/>
<path d="M3390 4529 c-93 -12 -130 -20 -209 -45 -584 -191 -876 -848 -625
-1405 169 -374 533 -611 939 -612 102 0 131 3 210 19 198 40 377 136 520 278
266 264 369 639 275 997 -29 114 -74 214 -134 304 -56 84 -53 80 -139 167
-189 189 -430 293 -697 301 -47 1 -110 -1 -140 -4z"/>
</g>
</svg>
