<svg width="33" height="32" viewBox="0 0 33 32" fill="none" xmlns="http://www.w3.org/2000/svg">
<path d="M21.5086 0.913243C17.7244 -0.416235 13.5811 -0.290406 9.88458 1.26625C6.18808 2.8229 3.20288 5.69905 1.50978 9.33507C-0.183319 12.9711 -0.463176 17.107 0.724638 20.9379C1.91237 24.7689 4.48291 28.021 7.93592 30.0615L11.0476 23.585C9.15781 22.4682 8.24244 20.8353 7.59241 18.7387C6.94238 16.6421 7.21301 14.4121 8.13958 12.4222C9.06623 10.4323 10.6999 8.85825 12.7229 8.00634C14.7459 7.15441 16.9618 7.26934 18.5772 7.43088L21.5086 0.913243Z" fill="white"/>
<path d="M10.9848 31.0868C14.7689 32.4162 18.9122 32.2904 22.6088 30.7338C26.3053 29.1771 29.2905 26.301 30.9836 22.6649C32.6767 19.0289 32.9565 14.893 31.7687 11.0621C30.581 7.23107 28.0104 3.97897 24.5574 1.93849L21.4457 8.41505C23.3355 9.53175 24.2509 11.1647 24.9009 13.2613C25.551 15.3579 25.2803 17.5879 24.3538 19.5778C23.4271 21.5677 21.7934 23.1418 19.7704 23.9937C17.7474 24.8456 15.5316 24.7307 13.9162 24.5691L10.9848 31.0868Z" fill="white"/>
<path d="M16.4771 21.0003C19.1536 21.0003 21.3234 18.8306 21.3234 16.1541C21.3234 13.4776 19.1536 11.3079 16.4771 11.3079C13.8007 11.3079 11.6309 13.4776 11.6309 16.1541C11.6309 18.8306 13.8007 21.0003 16.4771 21.0003Z" fill="white"/>
</svg>
